<svg data-v-423bf9ae="" xmlns="http://www.w3.org/2000/svg" viewBox="0 0 310.3726024009568 60" class="font"><!----><!----><!----><g data-v-423bf9ae="" id="b84c50b2-1f19-45ba-9fc3-5dd548508bb9" fill="white" transform="matrix(4.470938871750703,0,0,4.470938871750703,-3.7555879361333666,-8.271236423287846)"><path d="M4.79 10.63L2.89 10.63L2.89 4.47L4.79 4.47L4.79 4.47Q7.52 4.47 7.53 7.55L7.53 7.55L7.53 7.55Q7.52 10.62 4.79 10.63L4.79 10.63ZM0.84 12.67L4.79 12.67L4.79 12.67Q9.58 12.67 9.58 7.55L9.58 7.55L9.58 7.55Q9.58 2.41 4.79 2.41L4.79 2.41L0.84 2.41L0.84 12.67ZM11.26 9.26L11.26 9.26L11.26 9.26Q11.26 7.75 12.22 6.79L12.22 6.79L12.22 6.79Q13.17 5.84 14.68 5.84L14.68 5.84L14.68 5.84Q16.18 5.84 17.07 6.79L17.07 6.79L17.07 6.79Q17.96 7.75 17.96 9.26L17.96 9.26L17.96 9.94L13.24 9.94L13.24 9.94Q13.31 10.49 13.72 10.79L13.72 10.79L13.72 10.79Q14.13 11.10 14.68 11.10L14.68 11.10L14.68 11.10Q15.63 11.10 16.39 10.55L16.39 10.55L17.48 11.65L17.48 11.65Q16.73 12.67 14.68 12.67L14.68 12.67L14.68 12.67Q13.17 12.67 12.22 11.72L12.22 11.72L12.22 11.72Q11.26 10.76 11.26 9.26ZM16.04 8.57L16.04 8.57Q16.04 8.03 15.63 7.72L15.63 7.72L15.63 7.72Q15.22 7.41 14.68 7.41L14.68 7.41L14.68 7.41Q14.13 7.41 13.72 7.72L13.72 7.72L13.72 7.72Q13.31 8.03 13.31 8.57L13.31 8.57L16.04 8.57ZM20.84 5.84L18.89 5.84L21.64 12.67L23.28 12.67L26.02 5.84L24.08 5.84L22.44 10.11L20.84 5.84ZM29.48 12.67L27.43 12.67L27.43 2.42L28.11 2.42L34.54 8.85L34.54 2.42L36.59 2.42L36.59 12.67L35.83 12.67L29.48 6.32L29.48 12.67ZM38.19 9.26L38.19 9.26L38.19 9.26Q38.19 7.75 39.15 6.79L39.15 6.79L39.15 6.79Q40.11 5.84 41.61 5.84L41.61 5.84L41.61 5.84Q43.11 5.84 44.00 6.79L44.00 6.79L44.00 6.79Q44.89 7.75 44.89 9.26L44.89 9.26L44.89 9.94L40.17 9.94L40.17 9.94Q40.24 10.49 40.65 10.79L40.65 10.79L40.65 10.79Q41.06 11.10 41.61 11.10L41.61 11.10L41.61 11.10Q42.57 11.10 43.32 10.55L43.32 10.55L44.41 11.65L44.41 11.65Q43.66 12.67 41.61 12.67L41.61 12.67L41.61 12.67Q40.11 12.67 39.15 11.72L39.15 11.72L39.15 11.72Q38.19 10.76 38.19 9.26ZM42.98 8.57L42.98 8.57Q42.98 8.03 42.57 7.72L42.57 7.72L42.57 7.72Q42.16 7.41 41.61 7.41L41.61 7.41L41.61 7.41Q41.06 7.41 40.65 7.72L40.65 7.72L40.65 7.72Q40.24 8.03 40.24 8.57L40.24 8.57L42.98 8.57ZM45.80 12.67L48.23 9.11L46.02 5.85L47.96 5.85L49.21 7.68L50.46 5.85L52.40 5.85L50.19 9.11L52.62 12.67L50.66 12.67L49.21 10.54L47.76 12.67L45.80 12.67ZM58.11 12.35L58.11 12.35Q57.61 12.67 56.98 12.67L56.98 12.67L56.98 12.67Q55.82 12.67 55.13 12.02L55.13 12.02L55.13 12.02Q54.45 11.38 54.45 10.35L54.45 10.35L54.45 7.39L53.42 7.39L53.42 5.84L54.45 5.84L54.45 3.99L56.37 3.79L56.37 5.84L57.39 5.84L57.39 7.39L56.37 7.39L56.37 10.08L56.37 10.08Q56.37 10.62 56.60 10.85L56.60 10.85L56.60 10.85Q56.83 11.07 57.19 11.07L57.19 11.07L57.19 11.07Q57.30 11.07 57.70 10.98L57.70 10.98L58.11 12.35ZM59.24 8.57L59.24 8.57L59.24 8.57Q59.25 7.14 59.62 5.85L59.62 5.85L59.62 5.85Q60.00 4.50 60.78 3.29L60.78 3.29L60.78 3.29Q61.25 2.54 61.63 2.11L61.63 2.11L61.87 1.85L63.78 1.85L63.78 1.85Q63.72 1.96 63.59 2.11L63.59 2.11L63.59 2.11Q63.38 2.34 63.29 2.46L63.29 2.46L63.29 2.46Q62.54 3.62 62.06 4.99L62.06 4.99L62.06 4.99Q61.59 6.36 61.59 8.03L61.59 8.03L61.59 8.03Q61.59 8.30 61.60 8.57L61.60 8.57L61.60 8.57Q61.59 8.83 61.59 9.11L61.59 9.11L61.59 9.11Q61.59 10.77 62.06 12.13L62.06 12.13L62.06 12.13Q62.54 13.49 63.29 14.64L63.29 14.64L63.29 14.64Q63.38 14.77 63.59 15.00L63.59 15.00L63.59 15.00Q63.72 15.16 63.78 15.27L63.78 15.27L61.87 15.27L61.63 15.00L61.63 15.00Q61.25 14.57 60.78 13.84L60.78 13.84L60.78 13.84Q60.00 12.62 59.62 11.27L59.62 11.27L59.62 11.27Q59.25 9.99 59.24 8.57ZM70.26 8.57L70.26 8.57Q70.25 9.99 69.88 11.27L69.88 11.27L69.88 11.27Q69.50 12.62 68.72 13.84L68.72 13.84L68.72 13.84Q68.25 14.57 67.87 15.00L67.87 15.00L67.63 15.27L65.72 15.27L65.72 15.27Q65.78 15.16 65.91 15.00L65.91 15.00L65.91 15.00Q66.12 14.77 66.21 14.64L66.21 14.64L66.21 14.64Q66.96 13.49 67.44 12.13L67.44 12.13L67.44 12.13Q67.91 10.77 67.91 9.11L67.91 9.11L67.91 9.11Q67.91 8.83 67.90 8.57L67.90 8.57L67.90 8.57Q67.91 8.30 67.91 8.03L67.91 8.03L67.91 8.03Q67.91 6.36 67.44 4.99L67.44 4.99L67.44 4.99Q66.96 3.62 66.21 2.46L66.21 2.46L66.21 2.46Q66.12 2.34 65.91 2.11L65.91 2.11L65.91 2.11Q65.78 1.96 65.72 1.85L65.72 1.85L67.63 1.85L67.87 2.11L67.87 2.11Q68.25 2.54 68.72 3.29L68.72 3.29L68.72 3.29Q69.50 4.50 69.88 5.85L69.88 5.85L69.88 5.85Q70.25 7.14 70.26 8.57L70.26 8.57Z"></path></g><!----><!----></svg>